<svg width="96" height="96" viewBox="0 0 96 96" fill="none" xmlns="http://www.w3.org/2000/svg">
<path d="M45.4134 88.2333C37.8868 87.3202 30.6116 84.416 24.6281 79.936C22.6918 78.4863 19.4316 75.3415 17.601 73.1578C13.8899 68.7309 10.7776 62.6237 9.299 56.8671C7.80396 51.0464 7.6103 44.1938 8.77548 38.3424C9.53165 34.5449 10.7947 30.8985 12.5539 27.4339C19.6954 13.3695 34.2029 4.43903 49.909 4.43903C56.4804 4.43903 62.7701 5.9021 68.6028 8.78748C71.1459 10.0455 74.4706 12.1479 76.3482 13.6854C77.8616 14.9247 81.0701 18.1039 82.354 19.6365C90.6019 29.4816 93.8353 42.9971 90.9798 55.6918C89.5736 61.9434 86.4228 68.3694 82.4159 73.1578C75.7976 81.0669 67.0388 86.1186 56.8509 87.9025C54.4235 88.3275 47.7751 88.5198 45.4134 88.2333ZM55.2572 81.965C59.0756 81.3508 62.4446 80.2601 65.9762 78.4949C74.3007 74.334 80.8958 66.7037 83.8368 57.8308C84.4905 55.8588 85.3229 52.1 85.498 50.3297L85.5861 49.439H76.6376H67.689L67.2708 51.0221C65.5527 57.5257 60.2756 62.4899 53.4759 63.999C51.8974 64.3493 48.313 64.3953 46.6921 64.0859C43.041 63.3891 39.7286 61.6266 37.0668 58.9642C34.8802 56.7772 32.899 53.2037 32.3457 50.4489L32.1429 49.439H23.1688C16.6621 49.439 14.1947 49.4969 14.1947 49.6493C14.1947 50.5087 14.881 54.1386 15.4029 56.0399C19.3296 70.3445 31.6461 80.6709 46.6651 82.2507C48.7204 82.4669 53.0272 82.3237 55.2572 81.965ZM53.7768 57.7536C57.4026 56.5553 60.0728 53.8618 61.3705 50.0935C61.8167 48.7979 61.8865 48.3037 61.8865 46.439C61.8865 44.5744 61.8167 44.0802 61.3705 42.7846C60.0693 39.0062 57.3343 36.2612 53.6781 35.064C52.3998 34.6454 51.827 34.5676 50.0072 34.5652C48.1272 34.5627 47.6503 34.6305 46.2849 35.0943C42.5815 36.3525 39.9453 39.0057 38.6438 42.7846C38.1976 44.0802 38.1279 44.5744 38.1279 46.439C38.1279 48.303 38.1978 48.7986 38.6437 50.0953C40.1299 54.4171 43.6225 57.4578 48.0051 58.2455C49.5876 58.53 52.0673 58.3186 53.7768 57.7536ZM47.7637 52.0261C46.3614 51.4878 44.9427 50.0504 44.411 48.6293C42.9198 44.6438 45.7928 40.439 50.0072 40.439C53.3159 40.439 56.0072 43.1304 56.0072 46.439C56.0072 50.6636 51.7429 53.5537 47.7637 52.0261ZM32.7459 42.3609C33.3702 39.5067 35.011 36.5287 37.2523 34.1819C39.0088 32.3427 40.4695 31.2908 42.7225 30.2423C44.838 29.2579 46.1569 28.8886 48.4943 28.6262C52.4919 28.1774 57.0456 29.3372 60.5072 31.6859C61.7483 32.528 63.9943 34.7445 64.912 36.0328C66.2605 37.9258 67.4925 40.714 67.9152 42.8297L68.037 43.439H77.0306H86.0242L85.9269 42.8297C85.8733 42.4945 85.739 41.5875 85.6283 40.814C84.8549 35.4084 82.3752 29.5284 78.9073 24.8765C77.3573 22.7973 73.9794 19.4019 71.8983 17.8313C59.5618 8.52032 43.1824 8.04408 30.3797 16.6241C23.8716 20.9857 18.9957 27.3194 16.4519 34.7163C15.7239 36.8333 14.9384 40.2533 14.6747 42.4547L14.5568 43.439H23.5334H32.51L32.7459 42.3609Z" fill="#B9B9B9"/>
<path d="M45.527 88.2247C40.6292 87.7127 35.0078 85.9927 30.5069 83.6289C26.4892 81.5188 23.1965 79.0462 19.8993 75.6632C5.0529 60.4308 3.99841 36.5556 17.4367 19.9078C19.1179 17.8252 22.6403 14.4602 24.8984 12.7797C37.5437 3.36866 54.3659 1.80851 68.4757 8.73814C73.0125 10.9663 76.5693 13.5626 80.1476 17.2582C94.9307 32.5259 96.0173 56.2723 82.6885 72.7828C75.7191 81.4158 65.8136 86.8645 54.7321 88.1607C52.1675 88.4607 48.0583 88.4893 45.527 88.2247ZM53.2215 82.2423C61.7964 81.3736 69.4595 77.6778 75.4172 71.5376C78.4054 68.4579 80.1375 66.0413 81.9508 62.4221C83.5116 59.3071 84.7909 55.2944 85.2531 52.064C85.3637 51.2906 85.4981 50.3836 85.5516 50.0484L85.6489 49.439H76.6632H67.6775L67.36 50.7034C66.0559 55.8947 62.3008 60.4175 57.4234 62.6709C55.0772 63.755 53.5729 64.093 50.6129 64.2012C46.949 64.3351 44.8008 63.8913 41.7569 62.3715C37.1872 60.0898 33.4539 55.3729 32.3744 50.5172L32.1348 49.439H23.1646C14.5193 49.439 14.1944 49.4518 14.1944 49.7905C14.1944 49.9839 14.3714 51.1862 14.5878 52.4624C16.5241 63.8854 23.7667 73.593 34.1632 78.7002C40.1425 81.6375 46.8627 82.8865 53.2215 82.2423ZM52.3808 58.1456C61.0466 56.3556 64.8159 46.3264 59.5084 39.1806C57.2292 36.112 53.0553 34.2062 49.2557 34.4992C45.6409 34.778 42.3548 36.5895 40.3386 39.4149C39.2706 40.9117 38.6676 42.2873 38.3004 44.0652C37.9297 45.8596 37.9301 47.0157 38.3019 48.8376C39.2594 53.5297 42.8423 57.0981 47.6632 58.1612C49.198 58.4996 50.6909 58.4948 52.3808 58.1456ZM48.0201 52.1079C43.8801 50.6275 42.6797 45.3189 45.7833 42.2154C47.0274 40.9713 48.128 40.5328 50.007 40.5328C51.9057 40.5328 52.9865 40.9713 54.2827 42.2674C55.5087 43.4935 55.9092 44.5191 55.9114 46.439C55.9135 48.3179 55.476 49.4173 54.2306 50.6627C52.6342 52.2592 50.0954 52.8499 48.0201 52.1079ZM32.9018 41.8908C33.428 39.9823 34.5683 37.5574 35.6571 36.0315C37.5365 33.3978 40.7212 30.9608 43.8765 29.7418C46.3105 28.8015 47.843 28.5699 50.9379 28.6747C53.1695 28.7502 53.9689 28.8582 55.3507 29.2705C61.3637 31.0651 66.0431 35.876 67.6632 41.9291L68.0674 43.439H77.0436H86.0199L85.9019 42.4547C85.6379 40.2506 84.8526 36.833 84.1258 34.7253C78.4062 18.1378 61.48 8.0495 44.3168 10.9985C30.5265 13.3679 19.3037 23.5943 15.7115 37.064C15.2256 38.8861 14.5744 42.3909 14.5706 43.2047C14.5697 43.3889 16.4837 43.4387 23.5226 43.4376L32.4757 43.4362L32.9018 41.8908Z" fill="#A3A3A3"/>
<path d="M45.9757 88.2542C28.5543 86.3947 14.1473 74.3124 9.59048 57.7402C8.42675 53.5079 8.12353 51.2028 8.11627 46.5328C8.10862 41.6111 8.45757 39.0272 9.72418 34.6265C13.7707 20.5674 25.4804 9.27233 39.6491 5.76118C43.7175 4.75299 45.5867 4.53615 50.1007 4.54872C54.5562 4.56114 56.958 4.85261 60.7627 5.84267C72.2593 8.83429 82.3345 17.073 87.5933 27.7828C89.6281 31.9266 90.6889 35.2222 91.486 39.8765C92.0307 43.0568 92.0699 49.4578 91.5635 52.5328C90.0666 61.6223 86.3123 69.2348 80.2089 75.5563C73.6989 82.2989 65.7455 86.4135 56.1944 87.98C54.1026 88.3231 48.1241 88.4835 45.9757 88.2542ZM53.3424 82.2407C67.472 80.7016 79.1712 71.4341 83.7508 58.1528C84.4775 56.0451 85.2629 52.6275 85.5269 50.4234L85.6448 49.439H76.642H67.6391L67.5259 49.9547C65.9634 57.0766 60.4462 62.5448 53.3819 63.9734C51.2009 64.4144 47.1428 64.279 45.1445 63.6986C42.1689 62.8342 39.7376 61.4358 37.4682 59.2836C35.0864 57.0248 33.4199 54.2268 32.5268 50.9873L32.1007 49.4419L23.1233 49.4405L14.146 49.439L14.2743 50.6109C15.2188 59.2348 19.7306 67.7825 26.3753 73.5363C33.9029 80.0546 43.8718 83.2723 53.3424 82.2407ZM52.5141 58.1596C57.9367 57.0107 62.0004 51.9899 62.0004 46.439C62.0004 42.0121 59.3498 37.7057 55.4381 35.7773C54.565 35.3469 53.26 34.8712 52.5382 34.7202C44.0376 32.9416 36.4915 40.4741 38.2864 48.9462C39.6436 55.3524 46.0828 59.5221 52.5141 58.1596ZM48.1329 52.1386C45.4468 51.1595 43.8132 48.6829 44.0662 45.9733C44.2703 43.7876 45.5343 41.9468 47.4757 41.008C48.8361 40.35 51.2084 40.3465 52.5382 41.0005C53.7335 41.5882 54.8578 42.7126 55.4456 43.9079C56.0995 45.2377 56.0959 47.61 55.4381 48.9704C54.8579 50.1702 53.7265 51.299 52.5509 51.8513C51.3213 52.4289 49.2914 52.5609 48.1329 52.1386ZM32.9308 41.856C34.5359 35.7803 39.342 30.9675 45.6204 29.1491C46.9041 28.7772 47.524 28.7203 50.2882 28.7203C53.0523 28.7203 53.6723 28.7772 54.956 29.1491C61.6228 31.0801 66.413 36.1773 67.9004 42.9234L68.0141 43.439H77.0105C82.9223 43.439 86.0069 43.3743 86.0069 43.2503C86.0069 42.655 85.3754 39.011 85.0498 37.7274C81.8272 25.0239 71.944 14.9691 59.4552 11.6882C56.0108 10.7833 54.1286 10.5528 50.1944 10.554C44.4689 10.5556 40.122 11.518 35.1007 13.8957C24.3876 18.9685 16.9345 28.7837 14.9628 40.4157C14.7464 41.6919 14.5694 42.8942 14.5694 43.0875C14.5694 43.4263 14.8944 43.439 23.541 43.439H32.5126L32.9308 41.856Z" fill="#8C8C8C"/>
<path d="M47.0069 88.3313C43.9797 87.9845 42.6984 87.7873 40.8966 87.3911C28.0623 84.5684 17.0258 75.5819 11.7302 63.6421C5.82531 50.3284 7.07951 35.1984 15.0816 23.2128C26.8587 5.57316 49.5958 -0.523409 68.6632 8.84589C72.7724 10.8651 76.2314 13.3776 79.7387 16.8909C89.6572 26.8261 93.9098 40.9094 91.1472 54.6721C87.6544 72.0725 73.809 85.2263 56.1007 87.9679C54.291 88.2481 48.352 88.4854 47.0069 88.3313ZM55.5382 81.986C69.4975 79.6025 80.7237 69.5187 84.4237 56.0399C84.9456 54.1386 85.6319 50.5087 85.6319 49.6493C85.6319 49.4968 83.1596 49.439 76.6391 49.439H67.6464L67.4413 50.2359C65.7174 56.9347 61.2522 61.6585 54.7882 63.622C53.2526 64.0885 52.822 64.1357 50.0069 64.1462C47.3362 64.1561 46.697 64.0987 45.3319 63.7257C39.0706 62.0148 34.1734 57.1454 32.5558 51.0221L32.1376 49.439H23.166H14.1944L14.1952 49.8609C14.1956 50.0929 14.325 51.0843 14.4827 52.064C17.0645 68.1029 29.7937 80.2656 46.0694 82.2452C48.0228 82.4828 53.5082 82.3326 55.5382 81.986ZM52.5382 58.1579C56.8861 57.2481 60.5106 53.7296 61.6372 49.3247C63.2557 42.9962 59.3127 36.4507 52.8926 34.8088C46.5641 33.1902 40.0186 37.1333 38.3767 43.5533C36.7676 49.8449 40.681 56.3925 47.0473 58.0605C48.6959 58.4925 50.7639 58.5291 52.5382 58.1579ZM48.1881 52.1014C46.1513 51.3736 44.8534 50.0048 44.258 47.9568C43.7015 46.0426 44.3329 43.6881 45.7944 42.2265C48.0742 39.9467 51.9397 39.9467 54.2194 42.2265C54.6106 42.6177 55.1512 43.4092 55.4207 43.9853C56.4325 46.1482 55.9291 48.9419 54.2194 50.6515C52.6944 52.1765 50.1263 52.7939 48.1881 52.1014ZM32.8414 42.1747C34.4196 35.8919 39.3663 30.8849 45.707 29.1523C47.053 28.7845 47.7344 28.7206 50.2882 28.7223C53.6012 28.7246 54.7387 28.9353 57.3295 30.0266C60.5696 31.3915 63.8581 34.231 65.6254 37.1901C66.4237 38.5267 67.602 41.4901 67.905 42.9234L68.0141 43.439H77.0321H86.0501L85.9196 42.3609C84.6695 32.0344 79.3168 23.0586 70.7454 16.9156C68.5658 15.3535 64.007 13.0743 61.3507 12.2185C49.1928 8.30151 36.2233 11.018 26.5262 19.5124C20.1161 25.1275 15.5732 33.8312 14.6493 42.2671L14.521 43.439H23.5224H32.5238L32.8414 42.1747Z" fill="#767676"/>
<path d="M47.0069 88.3098C43.7163 88.0614 39.2885 87.1294 36.0382 86.0011C33.5 85.1199 29.2565 83.001 26.8918 81.434C16.8214 74.7606 10.3396 64.5035 8.45044 52.2515C7.99624 49.3059 7.99471 43.5897 8.44732 40.6265C10.0505 30.131 15.1529 20.9169 23.0069 14.3347C27.9043 10.2303 34.3232 7.00977 40.4444 5.58578C46.555 4.16426 53.4043 4.16285 59.5694 5.58185C71.0574 8.22597 81.1538 15.9136 86.8015 26.3172C90.3028 32.7667 91.8915 39.0474 91.8915 46.439C91.8915 53.2859 90.5685 58.9827 87.5824 64.9933C83.3893 73.4335 77.0435 79.807 68.6572 84.001C62.0966 87.282 54.2028 88.853 47.0069 88.3098ZM53.6632 82.2433C58.0697 81.7403 61.9321 80.5822 65.9426 78.5616C76.7965 73.0932 84.0717 62.6841 85.5449 50.5153L85.6756 49.4354L76.6324 49.4841L67.5893 49.5328L67.2342 50.939C66.8414 52.4945 65.7248 54.9612 64.7932 56.3314C62.9681 59.0158 60.7649 60.9274 57.8272 62.3755C55.3752 63.5842 53.4841 64.0715 50.7569 64.1975C48.142 64.3183 46.4065 64.0732 43.9577 63.2374C41.4511 62.3819 39.3965 61.1073 37.4317 59.189C34.9272 56.7439 33.2741 53.9187 32.4664 50.7033L32.1488 49.439H23.1457H14.1427L14.2703 50.7047C14.9922 57.8602 18.5414 65.4647 23.783 71.0869C31.3321 79.184 42.8361 83.4793 53.6632 82.2433ZM53.6211 57.902C57.5031 56.5271 60.2174 53.7625 61.5619 49.814C61.8314 49.0226 61.9131 48.2377 61.9131 46.439C61.9131 44.6404 61.8315 43.8554 61.5619 43.064C60.2437 39.1927 57.6548 36.4823 53.9405 35.0849C52.6758 34.609 52.2991 34.556 50.1007 34.545C48.1862 34.5354 47.4419 34.6082 46.6319 34.884C42.682 36.2292 39.9051 38.9568 38.5474 42.8249C37.9924 44.4064 37.8721 47.1273 38.2769 48.9468C39.2603 53.3668 42.633 56.8763 47.0474 58.0729C48.8407 58.5591 51.9977 58.477 53.6211 57.902ZM48.6447 52.246C47.5794 51.9785 46.6192 51.431 45.8093 50.6293C43.518 48.3611 43.518 44.5327 45.8093 42.2414C48.101 39.9498 51.9129 39.9498 54.2045 42.2414C56.4962 44.5331 56.4962 48.345 54.2045 50.6366C52.8416 51.9996 50.4361 52.6959 48.6447 52.246ZM32.6754 42.9234C33.4655 39.3222 35.16 36.2727 37.8066 33.689C39.7715 31.7707 41.8263 30.4961 44.3327 29.6406C46.8098 28.7952 48.5119 28.5584 51.2257 28.6818C59.2684 29.0475 65.7135 34.4708 67.8163 42.6422L68.0214 43.439H77.0326H86.0438L85.9166 42.2672C85.5354 38.7557 84.2519 34.3091 82.6559 30.9703C76.6734 18.4552 64.0358 10.439 50.2882 10.439C33.9805 10.439 19.5713 21.6688 15.5236 37.5328C15.0744 39.2933 14.5694 42.1343 14.5694 42.9011V43.439H23.5659H32.5623L32.6754 42.9234Z" fill="#606060"/>
<path d="M46.6005 88.2497C31.7552 86.9145 18.9717 78.2351 12.4973 65.0952C9.44873 58.9081 8.13385 53.2863 8.13385 46.439C8.13385 44.1469 8.24349 42.2102 8.45709 40.7296C10.4649 26.8123 18.9312 15.0523 31.3507 8.92997C37.5363 5.8807 43.1614 4.56511 50.007 4.56665C56.7963 4.56818 62.6465 5.92195 68.5378 8.85481C76.878 13.0068 83.2329 19.2891 87.3999 27.5015C90.4554 33.5233 91.8719 39.5138 91.8778 46.439C91.8835 53.0393 90.6026 58.7076 87.7682 64.6265C83.7018 73.1179 77.0036 79.8563 68.4757 84.0347C65.257 85.6118 63.2255 86.3601 60.0566 87.1359C55.8617 88.163 50.5369 88.6037 46.6005 88.2497ZM53.9494 82.2416C64.3153 80.9536 73.4363 75.4515 79.4196 66.8769C82.5589 62.378 84.9613 56.0053 85.5523 50.6091L85.6808 49.4354L76.6275 49.4841L67.5741 49.5327L67.1627 51.0875C65.8922 55.8893 62.3664 60.139 57.7882 62.3868C55.4523 63.5337 53.4838 64.0525 50.9304 64.1942C41.9795 64.6909 34.2348 58.7714 32.3005 49.9546L32.1873 49.439H23.164H14.1406L14.2667 50.7984C14.336 51.546 14.608 53.1182 14.8711 54.2921C17.847 67.569 28.0613 78.054 41.2882 81.4093C44.9262 82.3321 50.3507 82.6887 53.9494 82.2416ZM52.8195 58.1471C54.9923 57.6365 56.6704 56.6639 58.4511 54.8832C60.9253 52.409 62.0014 49.8494 62.0014 46.439C62.0014 43.0285 60.9253 40.4689 58.4511 37.9948C55.977 35.5207 53.4174 34.4445 50.007 34.4445C46.5965 34.4445 44.0369 35.5207 41.5628 37.9948C39.0887 40.4689 38.0125 43.0285 38.0125 46.439C38.0125 49.8494 39.0887 52.409 41.5628 54.8832C43.3149 56.6353 45.0092 57.6302 47.103 58.1363C48.594 58.4968 51.3096 58.5018 52.8195 58.1471ZM48.722 52.2452C47.0314 51.8967 45.2782 50.4237 44.5166 48.7119C43.9751 47.4948 43.9742 45.3513 44.5146 44.1561C45.0731 42.921 46.3036 41.6605 47.5429 41.0539C49.0266 40.3278 50.9959 40.3324 52.4947 41.0656C53.7164 41.6634 54.9488 42.9335 55.4934 44.156C56.0923 45.5002 56.0436 47.5707 55.3814 48.9242C54.7967 50.1193 53.5139 51.383 52.3837 51.8772C51.4075 52.304 49.7942 52.4662 48.722 52.2452ZM32.755 42.6421C34.1513 37.078 37.4307 32.9393 42.3742 30.5025C45.308 29.0564 46.6888 28.7507 50.2882 28.7507C52.7864 28.7507 53.5391 28.819 54.7882 29.1593C58.8575 30.2676 62.7488 32.9886 64.9952 36.2967C66.0755 37.8875 67.1942 40.3125 67.6185 41.9833L67.9643 43.3452L76.9856 43.3939L86.007 43.4426L86.0062 43.0189C86.0058 42.7859 85.8769 41.7937 85.7197 40.814C82.9123 23.3165 67.8911 10.439 50.2882 10.439C34.4575 10.439 20.3976 20.9567 15.8743 36.1828C15.2724 38.2088 14.5695 41.7819 14.5695 42.8155V43.439H23.5622H32.555L32.755 42.6421Z" fill="#494949"/>
<path d="M47.1944 88.2476C28.8505 86.9913 13.4441 73.9456 9.22395 56.0953C8.18815 51.714 7.82946 45.592 8.36707 41.4703C10.6874 23.6814 23.335 9.61495 40.6319 5.58589C47.0231 4.09716 54.6748 4.25746 61.0811 6.0143C77.1113 10.4104 89.0281 23.8725 91.4609 40.3337C92.1762 45.1739 91.9477 51.1071 90.8646 55.814C87.1104 72.1289 73.741 84.8459 57.3514 87.6919C55.3366 88.0418 50.718 88.4709 49.6319 88.4091C49.3741 88.3944 48.2773 88.3217 47.1944 88.2476ZM56.8568 81.8048C62.1359 80.6886 67.146 78.449 71.2889 75.3536C77.7513 70.525 82.5739 63.3927 84.5643 55.7203C85.0925 53.6843 85.6304 50.7778 85.6313 49.9547L85.6319 49.439H76.5382H67.4444L67.4428 49.8609C67.4398 50.6125 66.2122 53.872 65.3649 55.3783C64.2159 57.4207 60.9827 60.6513 58.9338 61.804C53.7247 64.7349 47.6165 65.0191 42.3909 62.5738C37.267 60.176 33.8629 55.9786 32.3851 50.2359L32.18 49.439H23.1259H14.0719L14.1428 50.0484C15.1194 58.4356 18.4084 65.516 24.0382 71.3508C29.7811 77.3027 36.7616 80.9156 44.8951 82.1455C47.842 82.5912 53.9622 82.4169 56.8568 81.8048ZM53.7569 57.9108C57.3093 56.7468 60.381 53.6463 61.4997 50.0953C62.0912 48.2178 62.0912 44.6603 61.4997 42.7828C60.4082 39.3183 57.5846 36.4051 53.9897 35.0344C52.8653 34.6057 52.4461 34.5514 50.1944 34.5426C48.0878 34.5345 47.443 34.6022 46.3507 34.9463C42.7984 36.0654 39.6924 39.1435 38.5376 42.689C37.9812 44.3971 37.8661 47.2876 38.2802 49.149C39.2429 53.4761 42.7588 57.0581 47.1132 58.1481C48.7355 58.5542 52.1675 58.4317 53.7569 57.9108ZM48.9066 52.241C46.1048 51.6767 44.1325 49.2798 44.1325 46.439C44.1325 44.7666 44.6611 43.5048 45.8669 42.299C48.2345 39.9314 51.7793 39.9314 54.1469 42.299C55.3527 43.5048 55.8814 44.7666 55.8814 46.439C55.8814 50.1162 52.4655 52.9577 48.9066 52.241ZM32.9672 41.939C33.3592 40.3866 34.4746 37.9211 35.4066 36.5467C37.8229 32.9836 41.6083 30.3131 45.8819 29.1567C48.1509 28.5428 52.3675 28.5484 54.6944 29.1684C60.9828 30.8441 65.9325 35.7239 67.552 41.8445L67.9491 43.3453L76.978 43.3939L86.0069 43.4426V42.897C86.0069 42.5969 85.8422 41.3937 85.6409 40.2233C84.1752 31.7011 79.5094 23.8141 72.6872 18.3265C67.945 14.512 62.7275 12.1393 56.2882 10.8687C54.9543 10.6055 53.6773 10.5371 50.1944 10.5423C46.1285 10.5483 45.6035 10.5882 43.3965 11.0578C33.1811 13.2313 24.7538 19.1804 19.4488 27.963C16.9952 32.0252 15.0421 37.7611 14.6415 42.0815L14.5153 43.4427L23.5637 43.394L32.6121 43.3453L32.9672 41.939Z" fill="#333333"/>
</svg>
